<?xml version="1.0" encoding="UTF-8" standalone="no"?>
<!-- Created with Inkscape (http://www.inkscape.org/) -->

<svg
   version="1.1"
   id="svg2622"
   xml:space="preserve"
   width="1066.6667"
   height="1066.6667"
   viewBox="0 0 1066.6667 1066.6667"
   sodipodi:docname="horse-pink-pdv.svg"
   inkscape:version="1.1.2 (b8e25be833, 2022-02-05)"
   xmlns:inkscape="http://www.inkscape.org/namespaces/inkscape"
   xmlns:sodipodi="http://sodipodi.sourceforge.net/DTD/sodipodi-0.dtd"
   xmlns="http://www.w3.org/2000/svg"
   xmlns:svg="http://www.w3.org/2000/svg"><defs
     id="defs2626"><clipPath
       clipPathUnits="userSpaceOnUse"
       id="clipPath2636"><path
         d="M 0,800 H 800 V 0 H 0 Z"
         id="path2634" /></clipPath></defs><sodipodi:namedview
     id="namedview2624"
     pagecolor="#ffffff"
     bordercolor="#666666"
     borderopacity="1.0"
     inkscape:pageshadow="2"
     inkscape:pageopacity="0.0"
     inkscape:pagecheckerboard="0"
     showgrid="false"
     inkscape:zoom="0.77906244"
     inkscape:cx="533.33337"
     inkscape:cy="533.33337"
     inkscape:window-width="1920"
     inkscape:window-height="1018"
     inkscape:window-x="-8"
     inkscape:window-y="-8"
     inkscape:window-maximized="1"
     inkscape:current-layer="g2628" /><g
     id="g2628"
     inkscape:groupmode="layer"
     inkscape:label="horse-pink-pdv"
     transform="matrix(1.3333333,0,0,-1.3333333,0,1066.6667)"><g
       id="g2630"><g
         id="g2632"
         clip-path="url(#clipPath2636)"><path
           d="m 729.711,581.181 c 0.31,-0.076 0.623,-0.143 0.941,-0.201 0.246,-0.02 0.493,-0.031 0.741,-0.031 4.255,0 7.585,3.022 9.189,4.824 3.329,3.142 5.693,7.639 7.017,13.365 1.155,3.315 1.224,5.833 0.239,7.931 -2.027,4.613 -5.812,8.044 -9.486,11.359 -0.514,0.472 -1.05,0.954 -1.57,1.432 -2.035,1.762 -4.197,3.626 -6.445,5.535 l -28.299,-4.74 z"
           style="fill:#ff3faf;fill-opacity:1;fill-rule:nonzero;stroke:none"
           id="path2638" /><path
           d="m 690.518,596.967 c 0.69,-0.143 1.386,-0.316 2.082,-0.518 0.344,-0.081 0.682,-0.161 1.02,-0.239 2.408,-0.563 4.885,-1.144 7.271,-1.939 4.89,-0.841 8.529,-1.861 11.788,-3.301 0.59,-0.267 1.168,-0.612 1.716,-0.946 0.845,-0.51 1.725,-1.042 2.717,-1.299 0.437,-0.341 0.887,-0.693 1.323,-1.034 3.444,-2.691 7.002,-5.464 11.276,-6.51 l -27.673,39.474 z"
           style="fill:#ff6ec4;fill-opacity:1;fill-rule:nonzero;stroke:none"
           id="path2640" /><path
           d="m 730.337,625.395 c -3.756,3.188 -7.756,6.498 -11.811,9.656 -1.283,1.202 -2.614,2.364 -3.967,3.497 l -12.521,-17.893 z"
           style="fill:#ff1294;fill-opacity:1;fill-rule:nonzero;stroke:none"
           id="path2642" /><path
           d="m 714.559,638.548 c -2.582,2.161 -5.25,4.219 -7.864,6.229 -1.752,1.351 -3.574,2.752 -5.334,4.163 -1.422,1.143 -2.871,2.301 -4.279,3.416 -7.629,6.078 -15.525,12.359 -22.183,19.706 -1.125,1.535 0.085,3.043 1.147,4.377 0.219,0.268 0.416,0.518 0.592,0.761 2.287,3.142 4.821,6.161 7.277,9.082 0.585,0.694 1.189,1.411 1.773,2.118 1.485,1.788 2.936,3.801 4.322,5.746 0.457,0.634 0.921,1.288 1.387,1.918 0.105,0.148 0.21,0.296 0.323,0.447 1.801,2.456 3.842,5.239 3.42,8.346 l -0.013,0.029 -0.022,-0.004 c -4.335,-0.415 -7.875,-2.965 -11.302,-5.433 -0.95,-0.69 -1.943,-1.401 -2.92,-2.044 -4.33,-2.851 -8.208,-6.383 -11.959,-9.801 -1.315,-1.202 -2.688,-2.444 -4.06,-3.648 -0.134,-0.239 -0.451,-0.415 -0.746,-0.415 -0.098,0 -0.246,0.021 -0.338,0.133 -0.085,0.099 -0.099,0.246 -0.063,0.432 0.056,0.283 0.275,0.494 0.492,0.698 l 0.015,0.01 c 1.329,1.271 2.442,2.848 3.511,4.371 0.423,0.598 0.859,1.221 1.302,1.805 1.541,2.054 3.069,4.078 4.539,6.013 2.097,2.767 4.117,5.642 6.011,8.544 l 0.043,0.07 c 1.843,2.826 3.744,5.747 4.433,9.143 v 0.035 h -0.028 c -2.387,-0.032 -4.8,-1.187 -6.932,-2.206 -0.247,-0.12 -0.486,-0.237 -0.732,-0.349 -4.949,-2.34 -9.593,-5.451 -14.069,-8.455 -0.634,-0.427 -1.266,-0.852 -1.9,-1.274 -0.317,-0.214 -0.632,-0.429 -0.95,-0.645 -2.625,-1.787 -5.348,-3.635 -7.876,-5.69 -0.492,-0.4 -0.991,-0.796 -1.491,-1.193 l 51.953,-74.328 z"
           style="fill:#ff178f;fill-opacity:1;fill-rule:nonzero;stroke:none"
           id="path2644" /><path
           d="m 606.379,382.867 c 0.063,1.007 0.078,2.077 0.044,3.222 -0.056,1.615 -0.19,3.263 -0.323,4.849 -0.032,0.378 -0.063,0.76 -0.093,1.142 l -4.311,-2.145 z"
           style="fill:#ffcbff;fill-opacity:1;fill-rule:nonzero;stroke:none"
           id="path2646" /><path
           d="m 576.098,587.547 49.083,-42.783 c 0.119,0.806 0.246,1.604 0.384,2.387 0.268,1.477 0.677,2.984 1.084,4.441 0.549,1.997 1.126,4.068 1.309,6.09 0.338,3.631 1.605,7.344 2.836,10.937 0.184,0.538 0.367,1.069 0.543,1.593 3.863,10.167 7.517,18.313 11.499,25.642 2.281,0.472 4.631,0.82 6.897,1.159 3.335,0.492 6.791,1.006 10.121,1.927 2.111,0.951 4.117,1.429 5.966,1.429 0.776,0 1.535,-0.085 2.275,-0.25 3.708,-0.197 7.431,-0.847 11.028,-1.473 2.525,-0.44 5.145,-0.898 7.741,-1.194 1.195,-0.065 2.419,-0.229 3.654,-0.485 l 11.52,23.688 z"
           style="fill:#ff6fb7;fill-opacity:1;fill-rule:nonzero;stroke:none"
           id="path2648" /><path
           d="m 702.038,620.655 -51.953,74.328 c -2.594,-2.064 -5.261,-4.081 -7.953,-6.003 -2.124,-1.519 -4.314,-3.011 -6.502,-4.439 -0.684,-0.448 -1.437,-0.867 -2.237,-1.311 -1.472,-0.815 -2.999,-1.664 -4.098,-2.723 l -0.027,-0.027 0.034,-0.018 c 0.064,-0.025 0.141,-0.04 0.219,-0.056 -0.14,-0.026 -0.281,-0.056 -0.422,-0.089 -1.564,-1.464 -3.407,-2.607 -5.18,-3.715 -1.281,-0.792 -2.598,-1.616 -3.807,-2.552 -3.646,-2.746 -6.938,-5.3 -9.989,-7.858 l -34.025,-78.645 z"
           style="fill:#ff459d;fill-opacity:1;fill-rule:nonzero;stroke:none"
           id="path2650" /><path
           d="m 617.24,426.672 c 3.574,8.319 6.059,15.157 7.832,21.511 0.252,0.904 0.489,1.799 0.712,2.69 l -12.082,-30.565 c 1.132,1.726 2.495,3.938 3.538,6.364"
           style="fill:#ffc3ff;fill-opacity:1;fill-rule:nonzero;stroke:none"
           id="path2652" /><path
           d="m 606.007,392.08 c -0.178,2.217 -0.323,4.484 -0.204,6.72 0.036,0.658 0.095,1.312 0.173,1.962 l -4.28,-10.827 z"
           style="fill:#ffc3ff;fill-opacity:1;fill-rule:nonzero;stroke:none"
           id="path2654" /><path
           d="m 610.123,666.192 c -2.721,-2.28 -5.25,-4.562 -7.662,-6.984 -5.468,-5.493 -10.795,-11.257 -15.841,-17.133 -4.962,-5.772 -8.896,-11.179 -12.043,-16.529 -0.654,-1.114 -1.266,-2.254 -1.852,-3.408 l 3.373,-34.591 z"
           style="fill:#ff3e94;fill-opacity:1;fill-rule:nonzero;stroke:none"
           id="path2656" /><path
           d="m 601.696,389.935 4.28,10.827 c 0.564,4.746 2.168,9.248 3.783,13.478 0.555,1.447 1.506,2.707 2.421,3.927 0.429,0.57 0.872,1.157 1.274,1.763 0.081,0.121 0.165,0.251 0.248,0.378 l 12.082,30.565 c 1.738,6.916 2.654,13.449 2.779,19.887 0.099,4.747 -0.26,9.539 -0.633,14.036 -0.422,5.04 -1.013,10.149 -1.576,15.086 -0.338,3.047 -0.704,6.197 -1.021,9.297 -0.119,1.175 -0.231,2.326 -0.331,3.416 -0.278,2.982 -0.488,5.775 -0.635,8.425 l -82.399,2.022 z"
           style="fill:#ffc6f6;fill-opacity:1;fill-rule:nonzero;stroke:none"
           id="path2658" /><path
           d="m 574.592,275.303 c -0.076,0.879 -0.268,1.745 -0.444,2.582 -0.023,0.112 -0.047,0.226 -0.073,0.341 l -0.846,-12.545 c 1.19,3.347 1.647,6.583 1.363,9.622"
           style="fill:#bbaeff;fill-opacity:1;fill-rule:nonzero;stroke:none"
           id="path2660" /><path
           d="m 592.938,358.047 c 0.245,0.701 0.484,1.404 0.711,2.108 0.853,1.662 2.232,2.956 3.555,4.205 1.211,1.144 2.462,2.324 3.336,3.783 1.773,2.864 3.463,5.673 4.589,8.589 0.698,1.806 1.107,3.801 1.25,6.135 l -4.683,7.068 z"
           style="fill:#efc0ff;fill-opacity:1;fill-rule:nonzero;stroke:none"
           id="path2662" /><path
           d="m 541.968,523.042 82.399,-2.022 c -0.294,5.367 -0.317,10.135 -0.083,14.624 0.166,3.158 0.466,6.214 0.897,9.12 l -49.083,42.783 z"
           style="fill:#ff98c8;fill-opacity:1;fill-rule:nonzero;stroke:none"
           id="path2664" /><path
           d="m 442.649,475.26 37.14,-101.972 c 0.187,-0.016 0.374,-0.031 0.562,-0.046 0.217,-0.017 0.449,-0.021 0.626,-0.021 0.098,0 0.204,0 0.302,0.004 h 0.318 c 0.578,0 1.208,-0.025 1.735,-0.249 l 58.636,150.066 z"
           style="fill:#ffe2fe;fill-opacity:1;fill-rule:nonzero;stroke:none"
           id="path2666" /><path
           d="m 507.948,164.161 c -0.096,0.437 -0.192,0.874 -0.278,1.312 -0.281,1.421 -0.513,2.962 -0.732,4.851 -0.098,0.842 -0.182,1.673 -0.267,2.443 -0.014,0.225 -0.028,0.472 -0.028,0.704 -0.014,0.355 -0.02,0.724 -0.084,1.059 -0.322,1.935 -0.522,3.856 -0.611,5.754 l -8.009,-4.004 z"
           style="fill:#a89dff;fill-opacity:1;fill-rule:nonzero;stroke:none"
           id="path2668" /><path
           d="m 520.689,182.496 c -0.267,-1.069 -0.562,-2.156 -0.843,-3.205 -0.902,-3.393 -1.844,-6.897 -2.267,-10.434 -0.169,-1.235 0.536,-2.146 1.218,-3.03 0.507,-0.653 1.035,-1.334 1.204,-2.145 0.992,-3.688 1.688,-7.58 0.105,-11.065 -0.077,-0.188 -0.148,-0.375 -0.218,-0.562 -0.209,-0.529 -0.42,-1.06 -0.625,-1.594 l 27.192,-32.926 c 0.148,0.016 0.292,0.028 0.443,0.046 l 0.127,0.014 c 0.584,0.063 1.661,0.183 2.027,0.658 0.774,0.999 0.971,2.273 1.154,3.501 l 0.015,0.102 c 0.295,1.904 -0.099,3.769 -0.479,5.574 -0.198,0.946 -0.408,1.929 -0.521,2.91 -0.324,3.04 -0.282,6.169 -0.211,8.864 0.013,0.5 0.028,0.992 0.042,1.492 0.013,0.503 0.028,1.01 0.043,1.521 -0.388,2.255 -1.929,3.944 -3.428,5.577 -0.809,0.89 -1.654,1.812 -2.294,2.811 -0.55,2.231 -0.43,4.05 0.366,5.405 0.352,0.595 0.781,1.108 1.202,1.605 0.579,0.679 1.17,1.382 1.536,2.294 1.068,2.667 1.14,6.253 0.196,10.095 0.015,3.414 0.028,6.823 0.043,10.234 l 0.007,1.283 -0.056,0.008 -0.121,-0.42 c 0.318,1.507 0.492,3.09 0.662,4.636 0.099,0.914 0.203,1.861 0.337,2.759 0.452,3.082 0.888,5.601 1.38,7.921 0.282,1.361 0.578,2.744 0.852,4.084 0.13,0.628 0.261,1.257 0.391,1.886 l -27.187,-13.594 c -0.457,-1.906 -1.202,-3.95 -2.292,-6.305"
           style="fill:#a89dff;fill-opacity:1;fill-rule:nonzero;stroke:none"
           id="path2670" /><path
           d="m 532.591,331.104 c 0.161,0.764 0.33,1.548 0.507,2.337 1.168,6.347 3.019,12.642 4.799,18.727 0.817,2.773 1.654,5.641 2.428,8.478 1.436,-0.173 2.801,-0.775 3.997,-1.307 -0.069,-0.985 0.085,-1.974 0.24,-2.928 0.197,-1.265 0.394,-2.575 0.07,-3.874 -0.802,-4.996 -1.118,-9.416 -0.957,-13.505 -0.323,-1.928 -0.457,-3.905 -0.591,-5.817 -0.119,-1.798 -0.239,-3.655 -0.521,-5.471 0.036,-1.9 -0.308,-3.79 -0.641,-5.616 -0.124,-0.69 -0.248,-1.392 -0.356,-2.097 l 32.306,-26.057 c 0.586,4.809 1.631,9.546 2.655,14.176 0.451,2.055 0.922,4.184 1.345,6.286 0.366,1.385 0.732,2.8 1.076,4.169 1.491,5.791 3.027,11.782 5.348,17.411 1.267,3.547 2.731,7.09 4.145,10.514 1.546,3.75 3.135,7.608 4.497,11.517 l 8.758,31.888 -116.48,-20.848 c -0.065,-1.182 -0.079,-2.369 -0.074,-3.546 l 46.775,-37.727 c 0.219,1.1 0.442,2.194 0.674,3.29"
           style="fill:#ffe0ff;fill-opacity:1;fill-rule:nonzero;stroke:none"
           id="path2672" /><path
           d="M 541.968,523.042 483.332,372.976 c 0.184,-0.08 0.356,-0.181 0.509,-0.315 0.528,-0.446 1.013,-0.935 1.549,-1.48 -0.082,-0.695 -0.136,-1.393 -0.174,-2.094 l 116.48,20.848 z"
           style="fill:#ffdfff;fill-opacity:1;fill-rule:nonzero;stroke:none"
           id="path2674" /><path
           d="m 530.627,219.687 c -1.224,-4.391 -2.33,-8.895 -3.405,-13.251 -0.543,-2.217 -1.105,-4.508 -1.676,-6.756 -0.233,-0.951 -0.548,-1.894 -0.858,-2.806 -0.522,-1.509 -1.042,-3.072 -1.183,-4.705 -0.075,-1.098 -0.245,-2.207 -0.524,-3.368 l 27.187,13.594 c 2.256,10.835 4.674,21.966 8.765,32.41 0.633,1.632 1.253,3.303 1.842,4.919 1.339,3.666 2.726,7.456 4.512,11.013 1.078,2.133 2.245,4.202 3.809,6.71 1.773,2.859 3.011,5.276 3.905,7.612 0.079,0.208 0.155,0.416 0.228,0.622 l 0.846,12.545 c -0.15,0.716 -0.298,1.452 -0.37,2.197 -0.189,1.966 -0.295,3.955 -0.303,5.911 -0.01,1.46 0.044,2.916 0.15,4.367 l -40.996,-62.04 c -0.446,-3.022 -1.023,-6.048 -1.929,-8.974"
           style="fill:#c9b6ff;fill-opacity:1;fill-rule:nonzero;stroke:none"
           id="path2676" /><path
           d="m 505.948,180.284 c -0.104,2.257 -0.052,4.482 0.174,6.654 0.018,0.588 0.024,1.176 0.024,1.759 l -8.207,-12.417 z"
           style="fill:#c9b6ff;fill-opacity:1;fill-rule:nonzero;stroke:none"
           id="path2678" /><path
           d="m 538.482,294.82 c -0.29,-4.735 -0.612,-9.001 -1.689,-13.208 -0.134,-1.358 -0.268,-2.741 -0.396,-4.079 -0.442,-4.493 -0.899,-9.145 -1.561,-13.691 -0.183,-1.855 -0.141,-3.752 -0.112,-5.588 0.048,-2.509 0.097,-5.103 -0.41,-7.619 -0.252,-1.851 -0.21,-3.747 -0.182,-5.585 0.042,-2.124 0.085,-4.321 -0.31,-6.456 -0.197,-1.405 -0.365,-2.839 -0.535,-4.226 -0.223,-1.887 -0.452,-3.797 -0.731,-5.707 l 40.996,62.04 c 0.062,0.858 0.139,1.712 0.235,2.566 l -34.326,6.991 c -0.288,-1.853 -0.633,-3.672 -0.979,-5.438"
           style="fill:#f3d0ff;fill-opacity:1;fill-rule:nonzero;stroke:none"
           id="path2680" /><path
           d="m 506.146,188.697 c -0.002,1.42 -0.051,2.802 -0.102,4.038 -0.315,5.424 0.473,10.861 1.238,16.115 0.093,0.649 0.192,1.301 0.276,1.949 0.162,1.108 0.282,2.026 0.38,2.895 0.211,1.774 0.352,3.582 0.492,5.331 0.105,1.226 0.212,2.493 0.332,3.734 0.153,1.587 0.435,3.187 0.711,4.733 0.188,1.098 0.386,2.235 0.541,3.357 0.197,1.456 0.387,2.942 0.563,4.378 0.499,3.952 1.007,8.037 1.851,11.999 0.915,4.335 2.132,8.016 3.716,11.256 2.645,5.169 5.636,11.028 8.007,17.06 1.915,4.866 2.647,10.229 2.24,16.395 -0.013,0.186 -0.028,0.369 -0.042,0.551 -0.071,0.96 -0.141,1.95 -0.058,2.924 0.058,0.733 0.212,1.464 0.36,2.171 0.14,0.673 0.288,1.365 0.352,2.059 0.102,1.025 0.28,2.054 0.46,3.059 l -42.336,8.622 c 0.029,-2.511 0.167,-5.037 0.594,-7.517 0.007,-0.31 0.007,-0.619 0.013,-0.929 0.056,-2.987 0.12,-6.078 -0.071,-9.108 -0.809,-4.356 -0.725,-8.984 0.275,-13.747 0.542,-2.563 0.796,-5.198 1.042,-7.75 0.155,-1.59 0.309,-3.237 0.541,-4.844 0.036,-0.972 0.036,-1.961 0.036,-2.918 -0.015,-2.228 -0.022,-4.532 0.492,-6.748 0.184,-5.522 0.14,-11.138 0.085,-16.572 -0.028,-3.623 -0.057,-7.368 -0.021,-11.045 -0.767,-2.555 -0.683,-5.256 -0.598,-7.868 0.02,-0.679 0.042,-1.38 0.048,-2.066 0.05,-1.19 -0.126,-2.379 -0.302,-3.529 -0.176,-1.176 -0.359,-2.389 -0.295,-3.607 0.084,-1.337 -0.098,-2.671 -0.282,-3.962 -0.127,-0.838 -0.24,-1.703 -0.295,-2.561 0.058,-1.929 -0.176,-3.856 -0.46,-5.739 l 12.01,-24.533 z"
           style="fill:#f3d0ff;fill-opacity:1;fill-rule:nonzero;stroke:none"
           id="path2682" /><path
           d="m 572.725,622.138 c -1.126,-2.222 -2.145,-4.492 -3.137,-6.712 -1.344,-3.009 -2.737,-6.119 -4.377,-9.061 -1.387,-2.48 -2.731,-5.046 -4.033,-7.524 -1.274,-2.42 -2.582,-4.926 -3.934,-7.35 -0.918,-1.65 -1.826,-3.245 -2.728,-4.801 l 21.582,0.857 z"
           style="fill:#ff62a0;fill-opacity:1;fill-rule:nonzero;stroke:none"
           id="path2684" /><path
           d="m 576.098,587.547 -21.582,-0.857 c -5.356,-9.227 -10.493,-16.865 -15.936,-23.736 -3.814,-4.797 -8.306,-10.31 -13.422,-15.072 -4.213,-3.922 -8.545,-7.008 -12.933,-9.242 l 29.743,-15.598 z"
           style="fill:#ff95bb;fill-opacity:1;fill-rule:nonzero;stroke:none"
           id="path2686" /><path
           d="m 527.517,303 c 0.056,0.322 0.112,0.646 0.169,0.971 0.295,1.737 0.597,3.504 0.886,5.215 0.219,1.28 0.437,2.561 0.656,3.845 0.925,5.428 1.766,10.155 2.689,14.783 l -46.775,37.727 c 0.004,-0.663 0.013,-1.321 0.021,-1.976 0.022,-1.382 0.043,-2.811 0,-4.215 -0.027,-4.068 -0.013,-8.206 0.007,-12.209 0.036,-7.053 0.065,-14.344 -0.203,-21.501 0.308,-3.175 0.254,-6.423 0.196,-9.562 -0.026,-1.569 -0.053,-3.159 -0.036,-4.755 l 42.336,-8.622 c 0.019,0.099 0.036,0.199 0.054,0.299"
           style="fill:#ffe3ff;fill-opacity:1;fill-rule:nonzero;stroke:none"
           id="path2688" /><path
           d="m 541.296,316.35 c 0.05,-1.77 -0.274,-3.53 -0.591,-5.236 -0.218,-1.197 -0.443,-2.431 -0.543,-3.663 -0.057,-2.433 -0.334,-4.841 -0.701,-7.193 l 34.326,-6.991 c 0.026,0.235 0.057,0.471 0.085,0.707 l -32.306,26.057 c -0.183,-1.215 -0.309,-2.447 -0.27,-3.681"
           style="fill:#ffe3ff;fill-opacity:1;fill-rule:nonzero;stroke:none"
           id="path2690" /><path
           d="m 492.401,111.979 c 0.474,-0.449 0.955,-0.886 1.434,-1.316 0.38,-0.338 0.774,-0.704 1.14,-1.056 1.167,-1.098 2.365,-2.235 3.899,-2.839 0.759,-0.348 1.534,-0.736 2.28,-1.109 2.111,-1.058 4.292,-2.154 6.686,-2.505 2.555,-0.789 5.727,-1.763 8.824,-1.763 1.169,0 2.238,0.13 3.266,0.401 1.52,0.239 2.816,1.242 3.568,2.752 0.795,1.586 0.809,3.389 0.049,4.821 -0.239,1.368 -0.689,2.705 -1.111,3.997 -0.078,0.21 -0.148,0.426 -0.218,0.641 -0.641,1.865 -1.007,3.831 -1.351,5.73 -0.304,1.644 -0.612,3.344 -1.106,4.973 -0.577,2.453 -1.66,4.847 -3.322,7.316 -1.294,1.935 -2.927,3.909 -5.152,6.215 -1.492,1.552 -0.964,3.779 -0.5,5.746 0.036,0.134 0.065,0.267 0.094,0.401 l 0.061,0.257 c 0.29,1.223 0.579,2.491 0.627,3.769 0.029,0.974 -0.09,1.868 -0.366,2.655 -0.423,1.201 -0.717,2.412 -0.887,3.594 -0.155,0.988 -0.421,1.991 -0.689,2.956 -0.078,0.288 -0.154,0.573 -0.232,0.855 -0.107,0.411 -0.219,0.824 -0.332,1.235 -0.38,1.456 -0.778,2.952 -1.115,4.456 l -10.009,12.119 z"
           style="fill:#a38aff;fill-opacity:1;fill-rule:nonzero;stroke:none"
           id="path2692" /><path
           d="m 517.467,139.872 c 0.788,-2.268 1.774,-4.465 2.548,-6.122 2.294,-4.95 6.728,-8.424 10.766,-11.169 2.759,-2.037 5.779,-3.923 9.115,-3.923 0.289,0 0.578,0.014 0.866,0.041 v 0.026 l 0.042,-0.018 c 0.253,-0.092 0.499,-0.186 0.738,-0.277 1.071,-0.409 2.085,-0.796 3.273,-0.923 0.211,-0.021 0.423,-0.031 0.641,-0.031 0.337,0 0.665,0.026 0.999,0.059 l -27.192,32.926 c -1.313,-3.409 -2.422,-6.925 -1.796,-10.589"
           style="fill:#a38aff;fill-opacity:1;fill-rule:nonzero;stroke:none"
           id="path2694" /><path
           d="m 541.968,523.042 -29.743,15.598 c -2.363,-1.203 -4.742,-2.161 -7.13,-2.863 -4.097,-1.199 -8.6,-1.78 -13.766,-1.78 -3.378,0 -7.052,0.243 -11.583,0.767 -15.621,1.814 -30.841,5.508 -45.46,11.016 l 8.363,-70.52 z"
           style="fill:#ffb4ce;fill-opacity:1;fill-rule:nonzero;stroke:none"
           id="path2696" /><path
           d="m 391.113,397.103 70.377,-22.309 15.461,-1.274 c 0.946,-0.077 1.893,-0.155 2.838,-0.232 l -37.14,101.972 z"
           style="fill:#fff0ff;fill-opacity:1;fill-rule:nonzero;stroke:none"
           id="path2698" /><path
           d="m 485.929,200.813 c -0.057,-0.378 -0.116,-0.755 -0.174,-1.13 -0.38,-2.456 -0.768,-4.996 -0.605,-7.535 -0.317,-2.385 -0.675,-4.81 -1.013,-7.154 -0.305,-2.08 -0.614,-4.199 -0.906,-6.326 l 14.708,-2.388 z"
           style="fill:#ffd5ff;fill-opacity:1;fill-rule:nonzero;stroke:none"
           id="path2700" /><path
           d="m 481.688,146.252 c 1.773,-1.914 3.102,-4.504 4.061,-7.921 0.013,-1.175 -0.177,-2.364 -0.374,-3.512 -0.254,-1.554 -0.513,-3.163 -0.267,-4.774 0.52,-3.97 1.224,-8.552 3.013,-12.669 1.03,-2.07 2.608,-3.81 4.28,-5.397 l 5.538,64.301 -17.835,-15.155 c -0.566,-2.594 -1.166,-5.245 -1.936,-7.814 -0.695,-2.523 1.084,-4.438 2.661,-6.123 0.295,-0.319 0.583,-0.626 0.859,-0.936"
           style="fill:#ba8dff;fill-opacity:1;fill-rule:nonzero;stroke:none"
           id="path2702" /><path
           d="m 483.231,178.668 c -0.246,-1.805 -0.481,-3.615 -0.686,-5.416 -0.583,-2.055 -0.941,-4.096 -1.068,-6.066 -0.423,-1.713 -0.803,-3.469 -1.176,-5.165 -0.065,-0.298 -0.13,-0.597 -0.197,-0.896 l 17.835,15.155 z"
           style="fill:#e2afff;fill-opacity:1;fill-rule:nonzero;stroke:none"
           id="path2704" /><path
           d="m 352.321,147.499 c 2.054,0 3.976,-0.057 5.862,-0.177 h 0.022 c 1.54,0 2.983,0.592 4.37,1.161 0.365,0.153 0.753,0.307 1.125,0.452 1.865,1.034 1.035,3.102 0.585,3.95 -2.66,3.019 -4.378,6.666 -6.039,10.194 -0.872,1.861 -1.78,3.791 -2.815,5.6 -0.351,0.765 -0.64,1.576 -0.921,2.357 -0.416,1.16 -0.838,2.36 -1.485,3.452 -1.379,2.305 -3.126,3.912 -5.349,4.915 -0.831,0.331 -1.69,0.641 -2.533,0.944 -1.313,0.476 -2.646,0.961 -3.937,1.53 l 5.086,-34.531 c 2.146,0.102 4.128,0.153 6.029,0.153"
           style="fill:#e2afff;fill-opacity:1;fill-rule:nonzero;stroke:none"
           id="path2706" /><path
           d="m 442.649,475.26 -8.363,70.52 c -6.245,2.352 -12.38,5.036 -18.39,8.046 l -29.562,-58.429 z"
           style="fill:#ffbbcf;fill-opacity:1;fill-rule:nonzero;stroke:none"
           id="path2708" /><path
           d="m 393.415,392.227 c 1.207,-0.526 2.422,-1.056 3.623,-1.584 3.195,-1.295 6.517,-2.382 9.733,-3.431 2.47,-0.806 5.033,-1.64 7.51,-2.565 4.391,-1.362 8.937,-2.411 13.343,-3.424 2.519,-0.581 5.116,-1.179 7.671,-1.834 2.787,-0.393 5.574,-1.048 8.276,-1.682 3.181,-0.742 6.46,-1.512 9.768,-1.868 0.958,-0.106 1.922,-0.263 2.85,-0.419 1.106,-0.183 2.26,-0.372 3.415,-0.471 l 1.886,-0.155 -70.377,22.309 z"
           style="fill:#fff3ff;fill-opacity:1;fill-rule:nonzero;stroke:none"
           id="path2710" /><path
           d="m 376.736,571.105 c -0.814,0.343 -1.63,0.684 -2.447,1.02 l 0.782,-6.421 z"
           style="fill:#ff4d7b;fill-opacity:1;fill-rule:nonzero;stroke:none"
           id="path2712" /><path
           d="m 383.484,568.161 c -2.233,0.998 -4.482,1.986 -6.748,2.944 l -1.665,-5.401 z"
           style="fill:#ff689a;fill-opacity:1;fill-rule:nonzero;stroke:none"
           id="path2714" /><path
           d="m 386.334,495.397 29.562,58.429 c -0.168,0.084 -0.336,0.165 -0.503,0.25 -2.548,1.287 -5.265,2.388 -7.89,3.454 -1.4,0.567 -2.843,1.155 -4.243,1.763 -4.307,1.834 -8.629,3.804 -12.809,5.712 -2.298,1.048 -4.623,2.107 -6.967,3.156 l -8.413,-2.457 z"
           style="fill:#ffa5b5;fill-opacity:1;fill-rule:nonzero;stroke:none"
           id="path2716" /><path
           d="m 391.113,397.103 51.536,78.157 -56.315,20.137 z"
           style="fill:#ffe6fa;fill-opacity:1;fill-rule:nonzero;stroke:none"
           id="path2718" /><path
           d="m 374.289,572.125 c -1.863,0.762 -3.734,1.501 -5.613,2.202 -7.692,2.871 -15.243,5.386 -22.45,7.469 -6.77,1.965 -13.751,3.569 -20.5,5.124 -1.021,0.233 -2.035,0.469 -3.048,0.701 -9.171,2.121 -16.363,3.17 -23.323,3.402 -0.813,0.027 -1.63,0.041 -2.446,0.05 l 78.162,-25.369 z"
           style="fill:#ff6563;fill-opacity:1;fill-rule:nonzero;stroke:none"
           id="path2720" /><path
           d="m 386.04,395.438 c 1.641,-0.719 3.278,-1.432 4.903,-2.138 0.815,-0.353 1.642,-0.713 2.472,-1.073 l -2.302,4.876 z"
           style="fill:#fff8ff;fill-opacity:1;fill-rule:nonzero;stroke:none"
           id="path2722" /><path
           d="m 305.058,357.283 c 0.556,2.271 1.103,4.543 1.63,6.81 0.446,1.933 0.944,3.882 1.445,5.798 l -22.141,-7.261 z"
           style="fill:#fff8ff;fill-opacity:1;fill-rule:nonzero;stroke:none"
           id="path2724" /><path
           d="m 298.433,330.55 c 0.045,0.199 0.089,0.401 0.134,0.599 0.309,1.433 0.634,2.861 0.943,4.29 0.507,1.993 1.028,4.018 1.534,5.979 1.337,5.203 2.706,10.528 4.014,15.865 l -19.066,5.347 z"
           style="fill:#fff5ff;fill-opacity:1;fill-rule:nonzero;stroke:none"
           id="path2726" /><path
           d="m 321.488,163.478 c 1.176,-4.699 4.188,-8.678 8.263,-10.916 0.57,-0.148 1.168,-0.229 1.752,-0.307 0.247,-0.03 0.507,-0.067 0.761,-0.105 4.806,-2.984 9.275,-4.56 13.653,-4.821 0.127,0.007 0.248,0.011 0.375,0.017 l -5.086,34.531 c -1.614,0.711 -3.162,1.555 -4.522,2.685 -1.338,1.97 -2.324,4.163 -3.189,6.236 -0.566,1.437 -0.668,2.97 -0.636,4.44 l -14.986,-19.544 c 0.921,-4.425 2.332,-8.647 3.615,-12.216"
           style="fill:#ffbaff;fill-opacity:1;fill-rule:nonzero;stroke:none"
           id="path2728" /><path
           d="m 249.472,519.97 36.52,-157.34 28.735,38.021 c 0.148,0.918 0.287,1.836 0.407,2.754 0.302,2.435 1.569,4.548 2.793,6.595 0.388,0.644 0.789,1.313 1.147,1.974 3.175,5.835 6.757,13.605 6.264,21.962 -0.056,0.639 -0.112,1.291 -0.169,1.92 -0.141,1.51 -0.273,3.069 -0.366,4.61 0.493,-0.714 0.986,-1.443 1.457,-2.15 0.232,-0.338 0.458,-0.678 0.683,-1.017 0.338,-0.478 0.661,-0.957 0.999,-1.439 2.082,-3.033 4.213,-6.124 6.562,-9.041 l 51.83,68.578 z"
           style="fill:#ffe1b3;fill-opacity:1;fill-rule:nonzero;stroke:none"
           id="path2730" /><path
           d="m 386.334,495.397 -51.83,-68.578 c 1.54,-1.914 3.174,-3.752 4.952,-5.446 7.136,-6.415 15.82,-11.789 26.553,-16.429 6.51,-3.479 13.314,-6.561 20.031,-9.506 l 5.073,1.665 z"
           style="fill:#fff3ef;fill-opacity:1;fill-rule:nonzero;stroke:none"
           id="path2732" /><path
           d="m 308.133,369.891 c 0.18,0.69 0.361,1.377 0.54,2.057 1.224,4.665 2.492,9.487 3.259,14.331 0.344,1.826 0.724,3.677 1.09,5.465 0.604,2.916 1.219,5.905 1.705,8.907 L 285.992,362.63 Z"
           style="fill:#fff3ef;fill-opacity:1;fill-rule:nonzero;stroke:none"
           id="path2734" /><path
           d="m 249.472,519.97 136.862,-24.573 -11.263,70.307 z"
           style="fill:#ffb59b;fill-opacity:1;fill-rule:nonzero;stroke:none"
           id="path2736" /><path
           d="m 375.071,565.704 -78.162,25.369 c -0.38,0.005 -0.759,0.01 -1.136,0.01 -4.961,0 -9.973,-0.345 -14.884,-1.031 -4.97,-0.694 -9.91,-1.742 -14.696,-3.118 -2.773,-0.798 -5.179,-1.591 -7.36,-2.424 -0.761,-0.289 -1.521,-0.655 -2.252,-1.041 -0.12,0.013 -0.242,0.038 -0.363,0.062 l -6.746,-63.561 z"
           style="fill:#ff9b6f;fill-opacity:1;fill-rule:nonzero;stroke:none"
           id="path2738" /><path
           d="m 275.411,263.652 25.131,-3.635 c -1.403,4.139 -2.709,8.356 -3.643,12.629 -1.373,4.567 -2.126,9.406 -2.851,14.083 -0.133,0.84 -0.267,1.707 -0.408,2.553 -1.083,6.764 -1.154,12.683 -0.211,17.595 1.26,6.598 2.675,13.135 3.766,18.098 0.412,1.856 0.83,3.738 1.238,5.575 l -12.441,32.08 z"
           style="fill:#fff3ff;fill-opacity:1;fill-rule:nonzero;stroke:none"
           id="path2740" /><path
           d="m 298.616,193.173 c 3.4,-1.05 6.496,-2.9 9.48,-4.691 0.668,-0.401 1.359,-0.816 2.034,-1.207 2.984,-2.777 6.7,-6.232 7.608,-10.947 0.041,-0.213 0.09,-0.422 0.135,-0.634 l 14.986,19.544 c 0.015,0.651 0.056,1.29 0.094,1.904 0.018,1.493 -0.314,2.852 -0.86,4.122 l -36.696,-5.729 c 0.875,-0.975 1.921,-1.796 3.219,-2.362"
           style="fill:#ffcfff;fill-opacity:1;fill-rule:nonzero;stroke:none"
           id="path2742" /><path
           d="m 317.786,222.199 c -5.579,9.399 -10.094,19.395 -14.18,29.045 -0.324,0.944 -0.662,1.882 -0.992,2.825 -0.695,1.962 -1.394,3.946 -2.072,5.948 l -25.131,3.635 z"
           style="fill:#ffeaff;fill-opacity:1;fill-rule:nonzero;stroke:none"
           id="path2744" /><path
           d="m 273,253.782 c 0.376,-0.736 0.758,-1.467 1.132,-2.182 1.604,-3.037 3.251,-6.176 4.265,-9.527 0.274,-0.815 0.697,-1.579 1.112,-2.318 0.444,-0.81 0.908,-1.647 1.182,-2.552 0.464,-1.737 1.168,-3.42 1.858,-5.042 0.739,-1.752 1.506,-3.564 1.963,-5.458 0.803,-2.934 1.753,-5.876 2.675,-8.723 1.316,-4.071 2.667,-8.28 3.61,-12.531 0.148,-0.428 0.289,-0.854 0.436,-1.304 0.985,-2.993 2.062,-6.264 4.164,-8.61 l 36.696,5.729 c -0.934,2.172 -2.496,4.083 -4.024,5.953 -1.056,1.288 -2.14,2.613 -2.998,3.997 -2.632,3.522 -5.042,7.208 -7.285,10.985 l -42.375,41.453 z"
           style="fill:#ffe2ff;fill-opacity:1;fill-rule:nonzero;stroke:none"
           id="path2746" /><path
           d="m 249.472,519.97 -50.547,-80.086 c 0.264,-0.589 0.526,-1.178 0.798,-1.761 0.372,-0.802 0.739,-1.626 1.091,-2.421 0.763,-1.714 1.551,-3.484 2.458,-5.166 0.61,-1.137 1.37,-2.203 2.106,-3.234 0.854,-1.2 1.735,-2.438 2.393,-3.8 2.656,-5.489 0.851,-11.369 -1.05,-16.447 -1.928,-5.155 -4.613,-11.856 -8.293,-17.981 -0.314,-0.522 -0.649,-1.04 -0.99,-1.554 l 88.554,-24.89 z"
           style="fill:#ffdda9;fill-opacity:1;fill-rule:nonzero;stroke:none"
           id="path2748" /><path
           d="m 187.23,372.891 c -1.14,-1.475 -2.346,-2.94 -3.514,-4.354 -1.792,-2.174 -3.646,-4.423 -5.3,-6.763 -3.223,-4.549 -5.134,-8.745 -5.844,-12.812 l -0.008,-0.046 0.042,0.015 c 0.088,0.024 0.169,0.035 0.254,0.052 -0.123,-0.078 -0.197,-0.212 -0.278,-0.492 -0.236,-0.831 -0.299,-1.83 -0.176,-2.893 0.102,-0.914 0.355,-1.858 0.745,-2.801 0.177,-0.425 0.441,-0.834 0.694,-1.231 0.275,-0.425 0.556,-0.867 0.722,-1.316 0.006,-0.021 0.017,-0.043 0.014,-0.063 0.805,-3.147 1.319,-6.409 1.815,-9.565 l 0.014,-0.096 c 0.36,-2.261 0.88,-4.478 1.387,-6.622 0.116,-0.489 0.229,-0.981 0.345,-1.473 0.661,-2.858 0.721,-6.053 0.781,-9.143 0.021,-1.062 0.039,-2.069 0.084,-3.061 0.169,-3.93 0.243,-8.058 0.225,-12.267 -0.031,-7.439 -0.352,-15.381 -0.978,-24.279 -0.156,-2.223 -0.328,-4.442 -0.509,-6.635 l 24.481,-0.851 c 0.019,3.075 -0.007,6.192 -0.216,9.262 0.004,0.113 0.014,0.281 0.025,0.45 0.01,0.184 0.021,0.37 0.028,0.496 0.003,0.392 0.006,0.783 0.01,1.176 0.022,2.889 0.046,5.876 0.535,8.731 0.536,3.092 1.151,6.695 1.746,10.236 0.693,4.137 1.551,9.012 2.663,13.776 1.183,6.218 3.347,12.263 5.441,18.112 0.704,1.966 1.432,4.001 2.11,6.013 0.406,1.251 0.914,2.476 1.47,3.664 l -28.281,35.467 c -0.176,-0.23 -0.352,-0.463 -0.527,-0.687"
           style="fill:#ffe0f2;fill-opacity:1;fill-rule:nonzero;stroke:none"
           id="path2750" /><path
           d="m 258.681,284.634 c -0.119,-0.238 -0.112,-0.482 -0.102,-0.77 0.014,-0.19 0.021,-0.409 -0.007,-0.659 -0.183,-1.776 0.091,-3.673 0.824,-5.626 0.365,-0.989 0.942,-1.967 1.492,-2.913 1.006,-1.711 2.04,-3.48 1.969,-5.462 1.459,-1.631 2.699,-3.46 3.891,-5.25 l 8.663,-0.302 z"
           style="fill:#ffe0f2;fill-opacity:1;fill-rule:nonzero;stroke:none"
           id="path2752" /><path
           d="m 145.29,272.737 c 0.742,0.373 1.463,0.775 2.143,1.201 2.389,1.495 4.388,3.356 5.873,5.443 3.603,2.607 5.098,6.816 6.541,10.887 0.134,0.373 0.264,0.75 0.402,1.122 3.04,9.895 3.996,21.138 2.923,34.376 -0.217,1.049 -0.404,2.127 -0.584,3.171 -0.482,2.819 -0.985,5.732 -2.185,8.364 -0.109,0.511 -0.239,1.027 -0.362,1.524 -0.116,0.471 -0.236,0.956 -0.341,1.435 3.898,7.9 7.889,17.316 7.938,27.309 -0.233,4.616 -0.252,9.626 -0.062,15.679 L 138.307,270.132 c 2.443,0.649 4.845,1.538 6.983,2.605"
           style="fill:#ffe0f2;fill-opacity:1;fill-rule:nonzero;stroke:none"
           id="path2754" /><path
           d="m 285.992,362.63 -88.554,24.89 c -0.65,-0.98 -1.334,-1.949 -2.005,-2.894 -0.749,-1.052 -1.524,-2.14 -2.238,-3.233 -2.008,-3.087 -3.752,-5.591 -5.438,-7.815 l 28.281,-35.467 c 0.861,1.842 1.839,3.597 2.746,5.221 1.83,3.836 4.174,7.348 7.13,11.436 0.921,1.066 1.847,2.161 2.741,3.22 2.78,3.286 5.651,6.686 8.807,9.719 1.095,1.235 2.721,1.58 4.29,1.915 0.13,0.027 0.26,0.056 0.39,0.084 0.004,-0.018 0.004,-0.032 0.004,-0.046 1.485,-4.321 3.765,-8.391 5.968,-12.327 1.302,-2.322 2.639,-4.722 3.8,-7.139 2.907,-6.053 4.835,-12.897 5.891,-20.913 0.352,-2.629 0.605,-5.415 0.76,-8.294 0.352,-6.681 0.183,-13.371 -0.035,-20.209 -0.134,-4.37 -0.289,-9.032 -0.486,-13.702 -0.014,-0.404 -0.035,-0.865 0.134,-1.269 0.169,-0.406 0.542,-0.69 0.907,-0.69 0.014,0 0.029,0.003 0.043,0.003 -0.085,-0.063 -0.162,-0.127 -0.225,-0.189 -0.104,-0.1 -0.173,-0.198 -0.222,-0.297 l 16.73,-20.982 z"
           style="fill:#ffeef4;fill-opacity:1;fill-rule:nonzero;stroke:none"
           id="path2756" /><path
           d="m 176.069,249.091 c -0.187,-1.831 -0.358,-3.695 -0.522,-5.529 l 30.19,-19.926 c 0.01,0.218 0.023,0.432 0.038,0.643 -0.039,2.878 -0.834,5.708 -1.605,8.442 -0.277,0.985 -0.566,2.006 -0.813,3.008 0.036,2.186 -0.277,4.381 -0.58,6.503 -0.313,2.197 -0.637,4.461 -0.577,6.717 0.046,1.264 -0.039,2.549 -0.123,3.787 -0.127,1.882 -0.257,3.827 0.081,5.743 0.003,1.513 0.021,3.05 0.038,4.535 0.012,1.053 0.024,2.115 0.03,3.181 l -24.481,0.851 c -0.526,-6.371 -1.129,-12.532 -1.676,-17.955"
           style="fill:#ffdfff;fill-opacity:1;fill-rule:nonzero;stroke:none"
           id="path2758" /><path
           d="m 266.748,263.954 c 0.097,-0.146 0.193,-0.292 0.29,-0.436 0.62,-0.94 1.267,-1.908 1.928,-2.843 0.169,-0.243 0.338,-0.487 0.507,-0.725 0.887,-1.277 1.816,-2.6 2.477,-4.048 0.337,-0.707 0.692,-1.416 1.05,-2.12 l 2.411,9.87 z"
           style="fill:#ffdfff;fill-opacity:1;fill-rule:nonzero;stroke:none"
           id="path2760" /><path
           d="m 165.89,401.683 -0.011,0.073 c -0.078,2.741 -0.549,5.478 -1.004,8.125 -0.172,0.995 -0.348,2.026 -0.503,3.043 -0.675,4.483 -1.403,9.036 -2.107,13.439 -0.243,1.527 -0.486,3.054 -0.729,4.581 -0.429,2.696 -0.799,5.45 -1.158,8.115 -0.421,3.152 -0.858,6.414 -1.393,9.589 -2.02,11.971 -2.765,24.191 -2.21,36.317 0.18,3.964 0.572,7.887 1.17,11.74 l -50.796,-12.913 z"
           style="fill:#ffba76;fill-opacity:1;fill-rule:nonzero;stroke:none"
           id="path2762" /><path
           d="m 188.762,504.538 c -0.881,-6.426 -0.996,-12.733 -0.996,-17.517 0,-8.741 1.404,-18.144 4.177,-27.941 1.845,-6.535 4.195,-12.979 6.982,-19.196 l 50.547,80.086 z"
           style="fill:#ffba76;fill-opacity:1;fill-rule:nonzero;stroke:none"
           id="path2764" /><path
           d="m 207.563,181.19 c 0.235,-0.044 0.481,-0.069 0.731,-0.069 0.993,0 2.06,0.38 2.668,1.195 -0.591,-0.826 -1.661,-1.207 -2.654,-1.207 -0.242,0 -0.485,0.026 -0.717,0.069 -1.366,0.22 -2.664,0.664 -3.92,1.209 1.246,-0.537 2.537,-0.974 3.892,-1.197 m -18.64,9.315 c 0.774,-0.471 1.577,-0.956 2.298,-1.514 3.104,-2.297 6.612,-4.053 10.004,-5.753 0.729,-0.362 1.482,-0.737 2.217,-1.115 1.534,-0.822 3.153,-1.276 4.554,-1.276 0.949,0 1.808,0.2 2.565,0.6 2.231,2.218 1.471,5.318 0.798,8.055 -0.155,0.64 -0.3,1.244 -0.42,1.835 l -24.612,0.927 c 0.806,-0.67 1.708,-1.221 2.596,-1.759"
           style="fill:#ffbaf0;fill-opacity:1;fill-rule:nonzero;stroke:none"
           id="path2766" /><path
           d="m 175.394,241.827 c -0.194,-2.181 -0.398,-4.444 -0.616,-6.664 -0.514,-5.184 0.08,-8.956 1.868,-11.876 0.211,-0.346 0.443,-0.683 0.668,-1.01 0.595,-0.869 1.215,-1.767 1.465,-2.846 0.313,-1.338 0.158,-2.774 -0.057,-4.128 -0.633,-3.977 0.11,-7.193 0.971,-10.916 0.12,-0.513 0.243,-1.045 0.363,-1.586 0.7,-3.467 2.794,-6.447 4.747,-8.9 0.43,-0.634 0.954,-1.165 1.524,-1.637 l 24.612,-0.927 c -0.021,0.101 -0.046,0.208 -0.065,0.309 0,0.021 -0.003,0.044 -0.003,0.066 -0.304,2.017 -0.87,4.001 -1.415,5.922 -0.409,1.432 -0.827,2.911 -1.137,4.385 -0.569,2.98 -2.012,5.925 -4.293,8.752 -0.102,0.136 -0.208,0.274 -0.323,0.414 -0.588,0.733 -1.197,1.49 -0.89,2.453 0.32,0.95 0.798,1.876 1.259,2.769 0.851,1.644 1.735,3.344 1.657,5.281 -0.023,0.672 -0.02,1.323 0.008,1.948 l -30.19,19.926 c -0.051,-0.582 -0.103,-1.161 -0.153,-1.735"
           style="fill:#ffc9ef;fill-opacity:1;fill-rule:nonzero;stroke:none"
           id="path2768" /><path
           d="m 256.218,583.531 c -0.557,0.11 -1.136,0.316 -1.678,0.518 -0.325,0.119 -0.635,0.239 -0.888,0.309 -0.309,0.085 -0.605,0.17 -0.915,0.254 -0.865,0.239 -1.766,0.486 -2.66,0.782 -2.864,0.936 -5.728,1.801 -8.498,2.564 -5.679,1.577 -11.503,2.907 -17.312,3.955 -2.971,0.532 -5.968,1.003 -8.91,1.39 -2.59,0.342 -5.307,0.518 -8.073,0.518 -8.089,0 -16.664,-1.432 -25.49,-4.251 -5.45,-1.746 -10.82,-4.148 -16.063,-7.169 l 31.118,-23.199 c 0.439,0.179 0.879,0.353 1.322,0.517 1.15,0.427 2.168,0.757 3.107,1.01 3.8,1.074 7.844,1.573 12.721,1.573 1.351,0 2.79,-0.038 4.391,-0.115 -0.619,-1.528 -1.703,-2.731 -2.955,-4.03 -1.102,-1.143 -2.161,-2.392 -3.431,-4.05 -1.005,-1.311 -1.99,-2.648 -2.958,-3.999 l 40.426,-30.138 z"
           style="fill:#ff855c;fill-opacity:1;fill-rule:nonzero;stroke:none"
           id="path2770" /><path
           d="m 209.046,550.108 c -1.248,-1.741 -2.466,-3.508 -3.633,-5.291 -2.154,-3.283 -4.205,-6.696 -6.098,-10.137 -0.391,-0.712 -0.796,-1.429 -1.183,-2.122 -1.326,-2.358 -2.695,-4.796 -3.8,-7.338 -2.629,-6.03 -4.498,-12.944 -5.553,-20.553 -0.006,-0.043 -0.011,-0.086 -0.017,-0.129 l 60.71,15.432 z"
           style="fill:#ff945c;fill-opacity:1;fill-rule:nonzero;stroke:none"
           id="path2772" /><path
           d="m 154.882,575.118 c -4.621,-3.568 -8.886,-7.506 -12.77,-11.775 l -34.963,-79.551 50.796,12.913 c 0.607,3.911 1.426,7.752 2.455,11.492 1.692,6.161 4.141,14.177 8.079,21.504 l 0.007,0.016 c 1.819,3.382 3.906,6.581 5.708,9.262 2.076,3.09 4.374,6.078 6.823,8.875 4.356,4.976 9.808,8.875 15.832,11.348 l -31.118,23.199 c -3.686,-2.124 -7.308,-4.551 -10.849,-7.283"
           style="fill:#ff945c;fill-opacity:1;fill-rule:nonzero;stroke:none"
           id="path2774" /><path
           d="m 115.858,391.648 -0.306,-0.252 c -1.14,-0.948 -2.315,-1.929 -3.659,-2.622 -2.256,-1.168 -4.959,-1.78 -7.813,-1.78 -0.611,-0.004 -1.235,0.027 -1.854,0.081 -0.718,0.063 -1.446,0.169 -2.167,0.306 -3.21,0.478 -6.169,1.858 -9.051,4.212 -1.491,1.219 -2.784,2.536 -3.865,3.92 l -15.883,0.086 c 0.034,-1.385 0.145,-2.687 0.268,-3.828 0.471,-4.359 2.421,-8.686 5.965,-13.23 3.015,-3.866 6.935,-6.9 11.647,-9.012 4.336,-1.942 9.328,-3.05 14.434,-3.201 0.363,-0.011 0.732,-0.017 1.098,-0.017 3.758,0 7.484,0.562 11.081,1.674 1.974,0.609 3.899,1.383 5.718,2.301 0.704,0.357 1.443,0.668 2.153,0.976 1.144,0.489 2.33,0.992 3.403,1.675 0.159,0.097 0.313,0.207 0.468,0.309 -0.165,-0.306 -0.169,-0.596 -0.165,-0.947 0,-0.134 0.003,-0.275 -0.007,-0.433 -0.102,-1.756 -0.423,-3.546 -0.729,-5.278 -0.035,-0.187 -0.067,-0.373 -0.099,-0.556 -0.516,-2.913 -1.371,-7.26 -2.811,-11.334 -1.038,-2.921 -2.871,-5.937 -5.602,-9.216 -0.658,-0.756 -1.358,-1.496 -2.082,-2.189 -5.877,-5.615 -14.098,-9.113 -22.556,-9.6 -0.655,-0.038 -1.303,-0.056 -1.922,-0.056 -0.233,0 -0.46,0.007 -0.689,0.01 l 22.124,-30.676 c 2.857,0.482 5.668,1.176 8.416,2.084 1.062,0.351 2.16,0.695 3.349,1.055 1.816,0.545 3.529,1.394 5.187,2.216 1.699,0.842 3.459,1.711 5.32,2.252 0.444,-1.076 0.831,-2.194 1.19,-3.248 1.231,-3.554 1.942,-7.347 2.111,-11.277 0.046,-1.08 0.011,-2.172 -0.021,-3.23 -0.025,-0.736 -0.046,-1.5 -0.042,-2.246 0.014,-3.089 -1.84,-6.411 -4.511,-8.076 -1.439,-0.897 -3.076,-1.351 -4.863,-1.351 -0.135,0 -0.271,0.006 -0.407,0.011 l 8.206,-11.378 c 0.472,0.107 0.944,0.223 1.415,0.349 l 29.269,113.116 c 0.014,0.432 0.028,0.867 0.045,1.311 -0.018,3.509 -0.35,7.033 -0.795,10.516 l -47.404,0.259 c -1.055,-1.355 -2.253,-2.598 -3.564,-3.686"
           style="fill:#ffb9ab;fill-opacity:1;fill-rule:nonzero;stroke:none"
           id="path2776" /><path
           d="m 70.838,365.374 0.018,0.071 -0.06,-0.04 c -0.652,-0.413 -1.283,-0.866 -1.894,-1.348 l 0.951,-1.316 c 0.387,0.854 0.733,1.728 0.985,2.633"
           style="fill:#ffb9ab;fill-opacity:1;fill-rule:nonzero;stroke:none"
           id="path2778" /><path
           d="m 123.093,296.19 c 0.933,0.244 1.883,0.278 2.685,0.278 0.324,0 0.651,-0.007 0.972,-0.014 0.315,-0.004 0.646,-0.01 0.97,-0.01 0.559,0 1.299,0.017 2.041,0.136 l -0.004,0.019 0.032,-0.015 -0.003,0.049 c -0.243,3.305 -4.382,3.66 -6.148,3.66 -0.077,0 -0.155,0 -0.228,-0.003 -2.368,-0.036 -4.872,-0.769 -7.049,-2.038 l 3.191,-4.425 c 0.895,1.135 2.152,1.995 3.541,2.363"
           style="fill:#ffb9ab;fill-opacity:1;fill-rule:nonzero;stroke:none"
           id="path2780" /><path
           d="m 83.502,408.771 c 0.38,1.798 1.158,3.489 2.256,4.892 1.439,1.942 3.266,3.579 5.215,4.993 0.996,0.726 2.03,1.394 3.093,2.017 0.384,0.224 1.053,0.436 1.355,0.745 0.351,0.359 0.355,1.112 0.401,1.577 0.021,0.221 0.042,0.433 0.074,0.609 l 0.007,0.028 -0.031,0.004 c -0.131,0.01 -0.261,0.02 -0.392,0.031 -0.559,0.043 -1.143,0.088 -1.713,0.088 -0.897,0 -1.619,-0.112 -2.267,-0.356 -5.049,-1.646 -8.962,-5.379 -11.809,-8.451 -2.466,-2.263 -4.514,-5.177 -6.633,-9.441 -1.546,-3.115 -1.876,-6.732 -1.798,-9.908 l 15.883,-0.086 c -3.23,4.127 -4.571,8.838 -3.641,13.258"
           style="fill:#ffab71;fill-opacity:1;fill-rule:nonzero;stroke:none"
           id="path2782" /><path
           d="m 97.691,470.159 c 1.362,-0.117 2.767,-0.177 4.232,-0.177 h 0.261 c 1.636,0.007 3.674,0.06 5.747,0.317 -0.11,-0.429 -0.229,-0.866 -0.349,-1.288 -0.124,-0.45 -0.25,-0.912 -0.366,-1.368 -0.616,-2.207 -0.978,-3.992 -1.136,-5.607 -0.071,-0.739 -0.187,-1.492 -0.296,-2.216 -0.155,-1.013 -0.317,-2.062 -0.366,-3.112 -0.253,-5.185 1.133,-9.964 2.699,-14.807 l 0.232,-0.72 c 1.126,-3.498 2.295,-7.116 3.864,-10.437 1.573,-3.333 3.356,-7.108 5.225,-10.743 0.465,-0.901 0.94,-1.813 1.397,-2.696 0.883,-1.696 1.795,-3.452 2.664,-5.19 2.691,-5.314 1.942,-11.549 -1.996,-16.679 -0.026,-0.035 -0.054,-0.067 -0.081,-0.102 l 47.404,-0.259 c -0.275,2.159 -0.593,4.304 -0.909,6.42 l -0.027,0.188 -58.741,82.109 z"
           style="fill:#ffab71;fill-opacity:1;fill-rule:nonzero;stroke:none"
           id="path2784" /><path
           d="m 142.112,563.343 c -3.395,-3.729 -6.5,-7.711 -9.286,-11.928 -4.779,-7.235 -8.287,-14.666 -10.433,-22.094 -1.781,-6.169 -3.445,-11.722 -5.821,-17.239 -2.761,-6.426 -6.443,-13.174 -12.804,-14.519 -1.756,-0.37 -3.685,-0.574 -5.423,-0.574 -0.394,0 -0.774,0.011 -1.137,0.032 -0.634,0.036 -1.387,0.133 -2.168,0.346 l 12.109,-13.575 z"
           style="fill:#ff775c;fill-opacity:1;fill-rule:nonzero;stroke:none"
           id="path2786" /><path
           d="m 89.563,504.653 c -0.16,3.43 1.42,6.936 4.126,9.149 0.046,0.004 0.088,0.014 0.134,0.018 2.073,0.626 4.314,0.989 6.848,1.112 l 0.003,0.056 c -0.486,0.116 -0.957,0.261 -1.411,0.402 -1.017,0.309 -1.974,0.605 -3.04,0.605 -0.271,0 -0.545,-0.022 -0.813,-0.06 -2.498,-0.37 -4.814,-1.01 -6.883,-1.905 -1.932,-0.836 -3.691,-1.91 -5.229,-3.195 -0.051,-0.043 -0.1,-0.092 -0.152,-0.136 l 6.575,-7.368 c -0.079,0.43 -0.138,0.869 -0.158,1.322"
           style="fill:#ff775c;fill-opacity:1;fill-rule:nonzero;stroke:none"
           id="path2788" /><path
           d="m 124.533,282.02 c -1.321,0.479 -2.453,1.105 -3.376,1.861 -2.505,2.053 -3.582,5.261 -2.68,7.977 0.236,0.712 0.607,1.376 1.075,1.969 l -3.191,4.425 c -0.396,-0.231 -0.782,-0.478 -1.153,-0.741 -2.594,-1.856 -4.312,-4.368 -4.833,-7.077 -0.696,-3.615 -0.108,-7.443 1.577,-10.238 1.69,-2.803 3.948,-5.158 6.714,-7.001 1.636,-1.088 3.424,-2.004 5.307,-2.714 2.42,-0.912 4.954,-1.376 7.526,-1.376 1.151,0 2.306,0.095 3.432,0.286 0.651,0.109 1.305,0.245 1.961,0.392 l -8.206,11.378 c -1.318,0.049 -2.715,0.336 -4.153,0.859"
           style="fill:#ff99b5;fill-opacity:1;fill-rule:nonzero;stroke:none"
           id="path2790" /><path
           d="m 84.639,334.577 c -4.743,1.443 -8.994,4.81 -11.968,9.481 -1.094,1.723 -1.991,3.567 -2.698,5.481 -0.697,1.89 -1.144,3.997 -1.577,5.985 -0.232,1.071 -0.362,2.189 -0.218,3.281 0.152,1.174 0.746,1.999 1.249,3.032 0.146,0.299 0.288,0.601 0.426,0.904 l -0.951,1.316 c -2.084,-1.641 -3.905,-3.653 -5.334,-5.918 -2.055,-3.265 -2.794,-7.685 -3.17,-10.725 -0.007,-0.07 -0.018,-0.142 -0.025,-0.207 l -0.003,-0.018 c -0.053,-0.447 -0.099,-0.898 -0.134,-1.344 -0.208,-2.41 -0.081,-4.846 0.042,-7.2 0.12,-2.284 0.088,-4.491 0.637,-6.732 0.645,-2.636 1.904,-4.93 3.185,-7.29 1.71,-3.164 3.769,-6.13 6.126,-8.822 2.129,-2.432 4.75,-5.165 8.076,-7.025 0.098,-0.051 0.193,-0.104 0.292,-0.157 0.633,-0.342 1.252,-0.722 1.85,-1.092 0.915,-0.566 1.866,-1.154 2.89,-1.6 1.717,-0.749 3.184,-1.337 4.782,-1.771 3.592,-0.973 7.319,-1.6 11.073,-1.857 1.341,-0.096 2.707,-0.141 4.051,-0.141 3.28,0 6.527,0.275 9.717,0.813 l -22.124,30.676 c -2.28,0.052 -4.313,0.355 -6.194,0.93"
           style="fill:#ff99b5;fill-opacity:1;fill-rule:nonzero;stroke:none"
           id="path2792" /><path
           d="m 78.478,480.816 c 1.776,-2.936 4.04,-5.288 6.745,-6.983 1.186,-0.743 2.463,-1.384 3.797,-1.901 1.165,-0.454 2.445,-0.806 4.149,-1.141 1.466,-0.29 2.967,-0.498 4.522,-0.632 l 9.458,13.633 z"
           style="fill:#ff885c;fill-opacity:1;fill-rule:nonzero;stroke:none"
           id="path2794" /><path
           d="m 95.04,497.367 c -0.998,0.273 -2.041,0.737 -2.937,1.512 -1.22,1.056 -2.05,2.637 -2.382,4.452 l -6.575,7.368 c -1.361,-1.163 -2.578,-2.511 -3.609,-4.015 -0.986,-1.443 -1.823,-3.055 -2.485,-4.786 -0.351,-0.915 -0.622,-1.742 -0.826,-2.526 -0.859,-3.308 -1.172,-6.205 -0.961,-8.85 0.257,-3.206 1.302,-6.457 3.023,-9.399 0.061,-0.105 0.128,-0.203 0.19,-0.307 l 28.671,2.976 z"
           style="fill:#ff745c;fill-opacity:1;fill-rule:nonzero;stroke:none"
           id="path2796" /></g></g></g></svg>
